{
    "asset" : {
        "generator" : "Khronos glTF Blender I/O v3.3.27",
        "version" : "2.0"
    },
    "scene" : 0,
    "scenes" : [
        {
            "name" : "Scene",
            "nodes" : [
                1
            ]
        }
    ],
    "nodes" : [
        {
            "mesh" : 0,
            "name" : "Turret"
        },
        {
            "children" : [
                0
            ],
            "mesh" : 1,
            "name" : "Tank"
        }
    ],
    "materials" : [
        {
            "doubleSided" : true,
            "name" : "Material",
            "pbrMetallicRoughness" : {
                "baseColorFactor" : [
                    0.800000011920929,
                    0.800000011920929,
                    0.800000011920929,
                    1
                ],
                "metallicFactor" : 0,
                "roughnessFactor" : 0.4000000059604645
            }
        }
    ],
    "meshes" : [
        {
            "name" : "Turret",
            "primitives" : [
                {
                    "attributes" : {
                        "POSITION" : 0,
                        "NORMAL" : 1,
                        "TEXCOORD_0" : 2
                    },
                    "indices" : 3,
                    "material" : 0
                }
            ]
        },
        {
            "name" : "Body",
            "primitives" : [
                {
                    "attributes" : {
                        "POSITION" : 4,
                        "NORMAL" : 5,
                        "TEXCOORD_0" : 6
                    },
                    "indices" : 7,
                    "material" : 0
                }
            ]
        }
    ],
    "accessors" : [
        {
            "bufferView" : 0,
            "componentType" : 5126,
            "count" : 379,
            "max" : [
                0.2842217683792114,
                0.9740995764732361,
                0.2934632897377014
            ],
            "min" : [
                -0.2842217683792114,
                0.6106639504432678,
                -0.9499016404151917
            ],
            "type" : "VEC3"
        },
        {
            "bufferView" : 1,
            "componentType" : 5126,
            "count" : 379,
            "type" : "VEC3"
        },
        {
            "bufferView" : 2,
            "componentType" : 5126,
            "count" : 379,
            "type" : "VEC2"
        },
        {
            "bufferView" : 3,
            "componentType" : 5123,
            "count" : 1452,
            "type" : "SCALAR"
        },
        {
            "bufferView" : 4,
            "componentType" : 5126,
            "count" : 2037,
            "max" : [
                0.6317874789237976,
                0.6011067628860474,
                0.5521593689918518
            ],
            "min" : [
                -0.6317874789237976,
                0,
                -0.5448026657104492
            ],
            "type" : "VEC3"
        },
        {
            "bufferView" : 5,
            "componentType" : 5126,
            "count" : 2037,
            "type" : "VEC3"
        },
        {
            "bufferView" : 6,
            "componentType" : 5126,
            "count" : 2037,
            "type" : "VEC2"
        },
        {
            "bufferView" : 7,
            "componentType" : 5123,
            "count" : 4824,
            "type" : "SCALAR"
        }
    ],
    "bufferViews" : [
        {
            "buffer" : 0,
            "byteLength" : 4548,
            "byteOffset" : 0,
            "target" : 34962
        },
        {
            "buffer" : 0,
            "byteLength" : 4548,
            "byteOffset" : 4548,
            "target" : 34962
        },
        {
            "buffer" : 0,
            "byteLength" : 3032,
            "byteOffset" : 9096,
            "target" : 34962
        },
        {
            "buffer" : 0,
            "byteLength" : 2904,
            "byteOffset" : 12128,
            "target" : 34963
        },
        {
            "buffer" : 0,
            "byteLength" : 24444,
            "byteOffset" : 15032,
            "target" : 34962
        },
        {
            "buffer" : 0,
            "byteLength" : 24444,
            "byteOffset" : 39476,
            "target" : 34962
        },
        {
            "buffer" : 0,
            "byteLength" : 16296,
            "byteOffset" : 63920,
            "target" : 34962
        },
        {
            "buffer" : 0,
            "byteLength" : 9648,
            "byteOffset" : 80216,
            "target" : 34963
        }
    ],
    "buffers" : [
        {
            "byteLength" : 89864,
            "uri" : "data:application/octet-stream;base64,"
        }
    ]
}
