{
    "asset" : {
        "generator" : "Khronos glTF Blender I/O v3.3.27",
        "version" : "2.0"
    },
    "scene" : 0,
    "scenes" : [
        {
            "name" : "Scene",
            "nodes" : [
                1
            ]
        }
    ],
    "nodes" : [
        {
            "name" : "FireOrigin",
            "translation" : [
                0,
                0.7637348771095276,
                -0.9913181662559509
            ]
        },
        {
            "children" : [
                0
            ],
            "mesh" : 0,
            "name" : "Tenk"
        }
    ],
    "materials" : [
        {
            "doubleSided" : true,
            "name" : "Material",
            "pbrMetallicRoughness" : {
                "baseColorFactor" : [
                    0,
                    0.11817944794893265,
                    0.8000000715255737,
                    1
                ],
                "metallicFactor" : 0,
                "roughnessFactor" : 0.4000000059604645
            }
        },
        {
            "doubleSided" : true,
            "name" : "Treads",
            "pbrMetallicRoughness" : {
                "baseColorFactor" : [
                    0.017387472093105316,
                    0.012161456979811192,
                    0.014963649213314056,
                    1
                ],
                "metallicFactor" : 0,
                "roughnessFactor" : 0.5
            }
        }
    ],
    "meshes" : [
        {
            "name" : "Tenk",
            "primitives" : [
                {
                    "attributes" : {
                        "POSITION" : 0,
                        "NORMAL" : 1,
                        "TEXCOORD_0" : 2
                    },
                    "indices" : 3,
                    "material" : 0
                },
                {
                    "attributes" : {
                        "POSITION" : 4,
                        "NORMAL" : 5,
                        "TEXCOORD_0" : 6
                    },
                    "indices" : 7,
                    "material" : 1
                }
            ]
        }
    ],
    "accessors" : [
        {
            "bufferView" : 0,
            "componentType" : 5126,
            "count" : 1483,
            "max" : [
                0.6493658423423767,
                1.2411593198776245,
                0.6651887893676758
            ],
            "min" : [
                -0.6493658423423767,
                0.141488179564476,
                -1.1519999504089355
            ],
            "type" : "VEC3"
        },
        {
            "bufferView" : 1,
            "componentType" : 5126,
            "count" : 1483,
            "type" : "VEC3"
        },
        {
            "bufferView" : 2,
            "componentType" : 5126,
            "count" : 1483,
            "type" : "VEC2"
        },
        {
            "bufferView" : 3,
            "componentType" : 5123,
            "count" : 2862,
            "type" : "SCALAR"
        },
        {
            "bufferView" : 4,
            "componentType" : 5126,
            "count" : 164,
            "max" : [
                0.6468847990036011,
                0.5711556673049927,
                0.6359530091285706
            ],
            "min" : [
                -0.6468847990036011,
                0.06041904538869858,
                -0.5848606824874878
            ],
            "type" : "VEC3"
        },
        {
            "bufferView" : 5,
            "componentType" : 5126,
            "count" : 164,
            "type" : "VEC3"
        },
        {
            "bufferView" : 6,
            "componentType" : 5126,
            "count" : 164,
            "type" : "VEC2"
        },
        {
            "bufferView" : 7,
            "componentType" : 5123,
            "count" : 408,
            "type" : "SCALAR"
        }
    ],
    "bufferViews" : [
        {
            "buffer" : 0,
            "byteLength" : 17796,
            "byteOffset" : 0,
            "target" : 34962
        },
        {
            "buffer" : 0,
            "byteLength" : 17796,
            "byteOffset" : 17796,
            "target" : 34962
        },
        {
            "buffer" : 0,
            "byteLength" : 11864,
            "byteOffset" : 35592,
            "target" : 34962
        },
        {
            "buffer" : 0,
            "byteLength" : 5724,
            "byteOffset" : 47456,
            "target" : 34963
        },
        {
            "buffer" : 0,
            "byteLength" : 1968,
            "byteOffset" : 53180,
            "target" : 34962
        },
        {
            "buffer" : 0,
            "byteLength" : 1968,
            "byteOffset" : 55148,
            "target" : 34962
        },
        {
            "buffer" : 0,
            "byteLength" : 1312,
            "byteOffset" : 57116,
            "target" : 34962
        },
        {
            "buffer" : 0,
            "byteLength" : 816,
            "byteOffset" : 58428,
            "target" : 34963
        }
    ],
    "buffers" : [
        {
            "byteLength" : 59244,
            "uri" : "data:application/octet-stream;base64,"
        }
    ]
}
